<svg id="Laag_1" data-name="Laag 1" xmlns="http://www.w3.org/2000/svg" viewBox="0 0 1649.79 5372.58"><path d="M1631.84,4409.45c-15.68-28.07-32.74-56.51-58.3-76.76-21.64-17.15-48-27.26-74.75-34.34-112.27-29.79-227.45-37.66-342.81-46.14-87.71-6.45-175.89-14.13-261.41-35.66-55.82-14.05-123-59.41-101.22-112.7,13.46-33,54-44,80.45-67.81,49-44,40.61-127.5-.07-179.28s-103.87-79.58-164.42-105.41L320.37,3585.42c-81.83-34.91-179.13-96.42-163.31-184,13-71.79,96.73-105.78,169.38-112.42,86.95-7.94,174.6,4.69,261.8,0s179.35-30.43,234.77-97.91c51.11-62.24,61.52-147.19,73.6-226.82,3.26-21.53,7.81-44.89,24.38-59,37.15-31.64,90.35,7.76,127.76,39.09,92.93,77.87,226.57,113,339.72,69.43s191.4-175.3,156.41-291.39c-24.18-80.22-135.39-140.46-191.13-77.91-31.51,35.38-29.69,94-66.42,123.92-54.7,44.6-130.71-10.65-193.07-43.7-104.74-55.48-230.24-44.2-348.57-50.87s-251.9-45.29-301.15-153.09c-47.19-103.31,6.7-228.83,90.92-305S728.8,2098.46,829.6,2046.11s200.84-124.39,238.81-231.44c18.71-52.74,22.11-113.12,57.72-156.3,16.68-20.22,39.16-34.83,57.14-53.9,60.07-63.72,54.18-177.58-12.16-234.75-65.89-56.79-165.61-51.84-248.08-24.16S764.64,1420,679.74,1439s-187.77,1-233-73.25c-37-60.66-19.82-148.27,37.26-190.54,68.66-50.86,163.82-31.79,248.51-20.47s189.82,1.66,227.2-75.18c13.59-27.94,15.87-61.64,35.7-85.56,44.24-53.35,128.26-19.43,196.81-9.3,66.94,9.89,139.93-11.1,184.5-62S1431,790.36,1392,735s-126.81-71.6-178.16-27.55c37.59-41.4,16.31-113.57-30.16-144.68s-107.21-30.48-162.28-20.73-109.34,27.49-165.26,26.75c-27.41-.36-58.69-8-71.07-32.41-15.37-30.37,7.58-66,32.45-89.23,63.26-59.13,147.87-94.93,234.37-99.16,43.29-2.12,93.86.43,121.39-33,16.44-20,20-48.71,38.15-67.17,31.68-32.26,85-16.26,130.16-16.73,64.51-.67,128.92-48.77,136.69-112.81S1423.69-11.88,1360.65,1.82c-119.25,25.92-107,250.19-228.32,263.61-35.36,3.91-69-14-100.93-29.63C956.63,199.22,873.32,171.89,791,184.28s-161.6,74-171.68,156.67c-12.21,100.14,73,182.68,150.61,247.17,18.1,15,36.61,30.34,58.52,39,21,8.25,44.61,10.18,63.53,22.43,51.53,33.37,45.53,126.26,103.59,146.21,61.69,21.2,140.62-63.49,184.89-15.58,19.26,20.85,13.9,55.29-2,78.81C1137,920.53,1049,926.49,975.35,917.06s-153.19-26.91-218.78,8c-46.52,24.75-76.51,71.42-114.92,107.5-117.73,110.6-324.75,134.13-377.84,286.68-23.78,68.33-4.24,149.71,48,199.8s134.31,66.25,201.6,39.66c74-29.22,157.84-103.09,217.69-50.71,18.77,16.44,27.91,42.24,48,57.07,37.7,27.88,92.31,3.38,125-30.21s58.09-77.1,100.76-96.51,108.77,8.51,100.29,54.63c-10,54.66-97.8,49.76-129.31,95.55-33.57,48.78,15.67,124.37-19.44,172.07-31.52,42.84-98.69,24.58-149.76,39.44-108.7,31.63-107.18,190.17-183.65,273.64-49.29,53.8-125.75,70.35-193.84,96.57s-139.29,76.79-142,149.7c-2.5,66.92,53.76,121,71.55,185.53,30,109-48.8,244.17,25.18,329.6,56.69,65.48,163.15,48.11,240.67,9.47s153.77-94.42,240.24-89.36c93.72,5.48,168.6,81.31,259.68,104.09,80.66,20.16,171.24-6,228.7-66.1,33.23-34.75,67.93-84.57,115-74.77,39.75,8.27,57.52,60.27,42.71,98.08s-51.44,62.45-88.35,79.39c-88.25,40.51-190.31,50.17-284.59,26.93-70-17.26-135.27-51.86-206.26-64.56s-155,3.3-193.09,64.56c-36.4,58.61-19.26,138.43-53.5,198.33-50.62,88.53-175.7,86.15-277.67,85a1230.61,1230.61,0,0,0-298,33.15c-42.4,10.07-90,27.48-104.81,68.47-8.93,24.71-3.28,52.17,4.39,77.3C46,3506.15,130,3612.25,239.52,3675.94c47.55,27.66,100.11,48,141.51,84.18s69.87,95.35,49.79,146.57c-15.54,39.62-57.25,68.34-60.62,110.76-3,37.83,27.51,71.4,62.32,86.5s73.73,16.54,111.29,21.89c100.74,14.34,194.84,56.37,287.79,95.66,90.58,38.3,184.45,77.84,283.82,83.89,42.6,2.6,84.58-6,127-8.36,44.53-2.46,89.72-.5,133,11.18a335.26,335.26,0,0,1,34.39,11.4,503.09,503.09,0,0,1,52.07,24.39c15.28,8.1,33.47,15.66,46.32,27.36,23.74,21.61,41.07,60.58,22.16,90.52-13.29,21-39.29,29.57-63.42,35.6a913.85,913.85,0,0,1-189.18,26.66c-24.92.88-50.12.72-74.47-4.68-62.53-13.86-111.91-59.85-163.2-98.2s-115.36-71.68-177.11-54.66c-35.25,9.72-64.16,34.63-90,60.53-20.75,20.82-40.75,43.34-52,70.49-8.64,20.88-11.86,43.95-22.78,63.74-17.44,31.6-51.43,49.78-83.72,65.92-34.23,17.12-69,34-106.18,43-37.58,9.1-76.65,9.89-114.74,16.53-54.17,9.44-105.55,30.54-155.78,52.9-55.41,24.68-113.31,54.16-152.27,102.14-53.79,66.25-45.31,156.3-62.76,235.06-10.11,45.68-29.19,92.92-15.37,137.62,10.19,33,36.68,58.05,63.37,79.92,35.08,28.76,73.26,55.26,116.8,68,54.06,15.84,111.74,9.34,167.92,5.19,52.16-3.85,105.21-5.66,155-21.72,21.89-7.06,43.53-17.27,58.83-34.44,28.92-32.46,23.66-75.51,2.55-109.77-21.75-35.32-51-74-92.17-87.73-31.88-10.61-64.29-7.5-97.13-7.78-35.16-.3-70.51-5.71-103.38-18.5-43.83-17.06-83.13-48-105.28-89.46-11.76-22-18.57-47.12-16.4-72,3.32-38.09,27.54-68.05,59.34-87.3,29.16-17.66,62.78-26.24,96-34.07a3195.88,3195.88,0,0,1,327.41-59.42c23-2.95,46.44-5.63,69.22-1.34,34.44,6.5,63.75,28.16,95.36,43.32,87.13,41.81,197.1,31.07,274.5-26.81,44.82-33.51,80.16-81.76,132.5-101.58,37.71-14.29,79.32-11.78,119.63-12.63a687.46,687.46,0,0,0,159.77-22.34c65.91-17.31,136.87-52.78,154.67-118.56C1654.7,4472.73,1648.14,4438.61,1631.84,4409.45ZM1213.22,879.17q5.35-11,10.69-22c3.5-7.19,7.11-14.75,8-23.55.74-7.18-.37-14.46-1.34-21.58-2.81-20.66-3.85-44.49,5.28-60.5,3.19-5.59,7.36-9.68,11.54-13.52,13.23-12.14,28.43-26.11,43.95-29.56a43.13,43.13,0,0,1,23.74,1.47,53.29,53.29,0,0,1,18.83,11.62c32.63,30.5,37.82,97,16.63,142.89-11.23,24.29-28.5,41.68-47.36,50.13-9.15,4.1-18.63,6.19-28.1,8-15.21,3-30.65,5.43-45.86,2.36-5-1-10.19-2.72-14.47-6.89a26.84,26.84,0,0,1-7.58-18.89C1207.23,891.77,1210.29,885.2,1213.22,879.17Zm79.9-784.27c1.39-8.19,3.17-16.19,6.26-23.19,20-45.4,60.68-43.51,90.8-25.1,20,12.23,47.9,37.86,49.51,74,.86,19.25-5.23,36.23-12.42,51.25-7,14.72-14.06,25.31-25.81,31.45-10.82,5.66-22.41,6.89-33.83,8.3-19.17,2.36-39.44,5.82-58.25-2.22-14.76-6.31-22.84-31.82-23.22-53.28C1285.8,135.75,1289.82,114.43,1293.12,94.9ZM728.69,449.17c-17.45,9-37.23,11.84-54,.29-26.38-18.16-46.73-75-40-117.9,2.28-14.57,7.61-27.76,16.63-37.33,8.44-9,18.21-14.6,27.87-20.14,30.61-17.57,61.43-35.23,93.64-44.25,16.91-4.73,34-6.66,51.06-9.25,18.35-2.77,36.81-4.8,55.26-3.8,24.89,1.34,50,8.38,72.15,25.49,7.41,5.73,14.88,13.3,18,24.94,5,18.88-3.57,39.93-13.91,53-21.66,27.42-50.82,36.12-78.45,45.45-33.67,11.38-67.22,25.2-98.27,47.82C762,425.6,746.14,440.2,728.69,449.17ZM1149.47,681c-6.51,13.64-16,23.32-25.65,31.78-30.36,26.67-65.11,46.88-100.8,44.47a75.06,75.06,0,0,1-40.24-14.66c-12.46-9.27-23.43-23.54-30.36-41.66-6-15.77-8.76-33.93-9.08-52-.29-16.19-.12-37.31,7.46-50.1a29,29,0,0,1,4.89-6.22c6.23-6,14-7.89,21.2-10.09a285.76,285.76,0,0,1,35.7-8.17c24.88-4.23,49.88-7.48,74.94-5.87,20.27,1.3,41.5,6.31,57.47,25.13a49.41,49.41,0,0,1,9.54,16.45C1161.73,631.6,1158.58,661.83,1149.47,681ZM682.19,1032.09c6.43-11.49,14.79-20.4,22.42-30a223.79,223.79,0,0,1,25.51-27.28c17.73-15.94,37.11-27.74,57.25-34.68a138.53,138.53,0,0,1,16.76-4.61c30-6.23,61-2,89.71,12.44,15.5,7.8,31.21,19.62,39.68,40.64,7.44,18.46,8.17,41.68,5,62.71-2.56,16.65-7.58,32.74-15.6,44.85a60.45,60.45,0,0,1-36.1,25.72c-18.6,4.71-38.34,2.59-57.11,2.3-20.26-.32-40.53-1.41-60.75-3.43q-20.94-2.09-41.8-5.59c-12.41-2.1-26.65-2.36-38.44-8.8-7.32-4-14.1-11.84-16.76-22.84C667.64,1065.86,674.77,1045.38,682.19,1032.09Zm-202.3,481c-8,12.74-19.75,18.67-31.24,21.78a102.75,102.75,0,0,1-33,3.12c-31.09-1.8-62.17-15.69-87.49-42.86-17.77-19.06-32.5-44.79-41.89-74.47-7.49-23.66-11.49-46.21-6.63-72.06,4.59-24.4,14.42-45.87,25.45-64.7,7.53-12.84,15.78-24.85,24.95-34.93a122.37,122.37,0,0,1,10.43-10.23c11.62-10,26-16.75,38.31-8.76,10.9,7.06,17.57,24.15,20.54,41.42,5.24,30.42,2.63,63,10.06,92.78A146.09,146.09,0,0,0,463.57,1444c7.66,5.5,16.12,10.4,20.91,20.93C491.06,1479.4,487.92,1500.37,479.89,1513.11Zm441.44-94.63c-2.34,13.68-7.42,25.94-13,37.27-19.84,40.08-48,72-80.38,83.34-16.14,5.65-34.36,5.56-47.83-8.93-9.62-10.34-15.61-26.74-19.53-43.52-1.76-7.56-3.18-15.54-2.68-23.52,1.1-17.37,10.24-27.68,19.8-35.17,30.51-23.89,64.82-33.89,97.81-48.52,9.07-4,20.28-10.3,30.24-8.36a17.73,17.73,0,0,1,6.62,2.75C923.6,1381.47,924,1402.81,921.33,1418.48ZM996.45,1592c3.08-4.6,7.94-7.7,12.85-10.25,18-9.37,38.39-14.64,57.32-22,19.94-7.78,39.57-16.76,57.29-28.89,3.29-2.25,6.66-4.75,9-8.9,3.12-5.5,4-13.15,3.93-20.38-.22-28.85-13.82-54.1-13.09-82.85.1-4,.61-8.12,2.31-11.16a9.12,9.12,0,0,1,9.5-4.72c25.67,3.33,49.61,36.28,55.16,73.68,2.29,15.48.87,31.67-1.42,47.16-1.77,12-3.56,25.82-9.46,36.54-17.69,32.16-40.49,61.27-73.42,78.82-15.59,8.3-32.47,13.84-49,20.12-10.61,4-21.85,8.46-33,6.24-10.58-2.1-19.3-10.13-24.36-19.65s-6.86-20.44-7.59-31.2C992,1606.73,992.13,1598.41,996.45,1592ZM694.12,1985.17c7-16.3,16.72-31.27,25-46.94,9.79-18.43,17.69-37.84,28.23-55.84s24.18-34.86,42.42-45C823,1819,862.73,1826,899,1822.89c36.48-3.14,60.84-23.58,85.41-48.16a51.71,51.71,0,0,1,14.55-10.31c8-3.7,16.69-4.67,24-.09,11.33,7.12,12.24,23.33,9.44,36.41-6.48,30.34-25.57,56.47-46.72,79.17-32.31,34.66-70.3,63.51-109,90.87-49.36,34.91-101.14,68.14-159.13,85.22-5.85,1.72-12.22,3.26-17.94,1.12C674.28,2047.64,687,2001.78,694.12,1985.17ZM374,2409.47a22,22,0,0,1-7.69-2.53c-13.58-6.94-22.69-20.68-27.24-35.23s-5.06-30-5.23-45.26c-.11-9.14-.1-18.34,1.46-27.34,5.24-30.31,27.38-55.07,51.9-73.65,41.14-31.17,90.38-49.44,138.83-67.28,4.8-1.76,10.18-3.52,14.87-1.47,19.28,8.43-1.51,28.64-18.76,42-7.45,5.76-14.24,10.25-16.86,11.94-59.71,38.71-88.37,102-106,169-1.81,6.91-3.53,14-7.48,20S381.09,2410.19,374,2409.47Zm329.74,344.75c-8.08,11.77-20.12,20.17-32.21,27.75-51.22,32.1-111.92,55.13-173.23,50-53.87-4.54-94.71-56.33-110.64-104.62-14.35-43.48-7.17-84,3.83-126.93,3.41-13.33,17.69-52.55,37.39-47.79,3.12.76,5.74,2.83,8.2,4.89,23.56,19.65,43.6,43.12,65.57,64.54s46.57,41.22,75.61,51.13c30.31,10.34,63.26,9.23,94.61,15.75,9.75,2,19.62,4.94,27.42,11.14C716.54,2713,714.5,2738.54,703.72,2754.22Zm482,199c15.35-.44,30.7.37,46,.7,5,.11,10.09.17,15.14.11,64.29-.71,125.31-19,186.5-36.67,9.57-2.77,21.79-4.75,27.86,3.15,5.42,7.06,2,17.35-2.81,24.86-19.59,30.82-56.08,46.4-91.57,55a414.05,414.05,0,0,1-108.76,11.14c-19.17-.51-38.59-2.3-56.58-9-14.69-5.45-35.76-17.16-41.82-32.82C1154,2954.9,1175.34,2953.5,1185.7,2953.2ZM645.38,3207c4.08-9.83,14.34-15.26,23.26-21.06a113.78,113.78,0,0,0,28.32-25.8c15.88-20.72,22.94-46.83,27.16-72.59,3.72-22.74,5.63-45.75,10.66-68.28,4.82-21.59,5.11-43.93,12.37-65.15q1.54-4.53,3.49-8.82c9.93-22,27.45-39,51.62-45.32,15.6-4.1,33.38-4,46.52,5.38,33,23.46,16.33,78.26,9.33,110.33a686.54,686.54,0,0,1-43.79,133.41c-10.58,23.71-22.74,47.24-40.18,66.69-17.26,19.26-44.41,26.52-69.26,30.16-14.33,2.11-29.63,3-42.66-3.3S639.84,3220.38,645.38,3207Zm-511,196q-1.68,5.27-3.27,10.57c-2,6.54-3.93,13.26-8,18.72-6.31,8.43-16.1,9.54-25.89,8.48-11.5-1.25-23-4.9-31.88-12.36-12.82-10.83-19.85-31-24.75-46.79-4.63-14.9-6.49-31-2.71-46.15,4.44-17.78,16.43-33,31.07-44.07s31.82-18.18,49.26-23.84a320.14,320.14,0,0,1,103.09-16c6.57.1,13.59.57,19.6,3.5,3.75,1.83,9.67,5.74,8.76,10.64a11.51,11.51,0,0,1-2.82,5.19,47.3,47.3,0,0,1-11,9.07q-1.16.72-2.31,1.41c-9,5.34-18.69,9.35-28,14.12-36.29,18.64-54.33,58.22-67,95.06Q136.35,3396.7,134.38,3403Zm550.71,691c-18.88,8.65-40.19,10.09-61,10.34-36.09.43-72.41-2.42-107.32-11.59-20.44-5.38-40.83-13.22-56.48-27.42s-25.45-33.79-31.72-53.95c-5-15.93-7.89-33.25-3-49.19,8.75-28.35,39.1-44.28,53.61-70.15,15.21-27.13,10.45-62.23-5.62-88.86-11.58-19.19-29.33-38.15-25.84-60.29a45.21,45.21,0,0,1,7.7-19.44c11.91-16.74,34.66-22.43,56.26-17.48,7.24,1.65,13.89,5.18,20.44,8.67L677.63,3792c22.79,12.13,45.4,25.27,68.47,36.59,19.13,9.39,36.27,16.49,50.26,33.56,13.75,16.78,22.6,37.61,26.18,58.94,4.65,27.72,1.58,59.08-16,81.93-18,23.42-46.18,36-69.41,53.35C719.9,4069.19,704.59,4085,685.09,4094Zm-525,973.92a210.1,210.1,0,0,0,24.33,25.44,183.5,183.5,0,0,0,57.89,34c27.48,9.78,56.91,12.46,86,14.82s58.48,4.51,86.29,13.34,54.31,25.12,69.54,50,16.88,59.15-.84,82.32c-16,20.92-43.45,29.09-69.36,33.76a453.53,453.53,0,0,1-245-24.13c-33.86-13.35-66.85-31.43-90.54-59.06-30.7-35.79-41.71-86.91-30.53-132.48a157.44,157.44,0,0,1,22.59-50.65c3.72-5.49,7.8-10.79,10.64-16.78s4.38-12.88,2.69-19.29c-.67-2.54-1.82-4.93-2.45-7.48s-.66-5.41.78-7.61c2.47-3.78,7.65-2.35,11.06-.89,18.58,7.95,33.23,22.91,46,38.57C146.25,5050.44,153,5059.31,160.11,5067.88Zm940.28-380.59c-19,21.66-51,25-76.48,38.32-23.78,12.4-42.12,33.7-66.29,45.33a96.6,96.6,0,0,1-75.19,3.25c-13.13-5-25-12.78-37.51-19.08-23.14-11.64-48.74-18.26-70.79-31.84-19-11.68-35.67-30.45-38.28-53.31-3-25.79,16.95-47.31,27-69.28a160.86,160.86,0,0,0,13.31-83.47c-1.35-12.56-4.19-25.18-2.48-37.7,1.47-10.75,6.13-20.5,12.27-29.5,5.46-8,12.09-15.44,18.7-22.49,13.22-14.11,27.67-28.31,46.15-34,16.61-5.12,34.59-2.71,51.48,1.39a268,268,0,0,1,94.85,44.39c30.66,22.51,54.32,52.69,80.47,80,6.48,6.76,13,13.57,18.32,21.27,15.23,22,19.8,49.56,21.24,76.26C1118.52,4641.57,1116.71,4668.65,1100.39,4687.29Zm457.73-111.64c-58.33,37.85-133.73,53.49-202.37,44.77-8.44-1.08-17.2-2.66-24-7.73-14.28-10.62-14.38-33.48-4.15-48s27.7-22.21,44.91-26.76c23-6.07,46.88-7.82,70.46-11s47.41-8,68.24-19.47c23.16-12.8,46.35-37.62,42.62-66a57.47,57.47,0,0,0-2.35-10c-3.27-10.38-8.32-20.41-7.82-31.19.4-8.67,5.15-21.86,14.71-21.56,32.3,1,52.89,41.17,58.92,68.5C1628.83,4499.62,1601.42,4547.56,1558.12,4575.65Z"/></svg>